<svg xmlns="http://www.w3.org/2000/svg" viewBox="0 0 265.78 161.56"><defs><style>.cls-1,.cls-3{fill:#dbbc21;}.cls-2{stroke:#000;stroke-miterlimit:10;}.cls-3{font-size:44.62px;font-family:AdornCondensedSans, Adorn Condensed Sans;}.cls-4{letter-spacing:-0.01em;}.cls-5{letter-spacing:0em;}.cls-6{letter-spacing:-0.02em;}</style></defs><g id="Layer_6" data-name="Layer 6"><path class="cls-1" d="M370.58,269.08c-.59-13.73-8.95-27-21.54-32.8a31.4,31.4,0,0,0-18.69-2.44,35.7,35.7,0,0,0-17.12,8.53,35,35,0,0,0-11,18.89,9.51,9.51,0,0,0,.92,5.79c.2.38.58,1.14,1.12,1.05s.65-1,.73-1.34c2.46-11.45,12.5-20.79,23.66-23.88a30.12,30.12,0,0,1,17.49.3,34.54,34.54,0,0,1,14.49,9.42,31.7,31.7,0,0,1,5.36,7.82q.26.52.48,1.05c.15.34,0,0,0,0l.24.62c.16.4.31.81.45,1.22.06.16.11.31.16.47s.06.21.1.33l0,.18.21.8c0,.2.19.87.16.71.07.36.14.72.2,1.08,0,.19.18,1.32.12.75a10.92,10.92,0,0,0,.52,2.59c.12.32.48,1.31.9,1.45C370.76,272.05,370.61,269.57,370.58,269.08Z" transform="translate(-209.3 -200.29)"/><path class="cls-1" d="M294.92,246.7c-.06-1-.26-2.9-1.22-3.49-4.59-2.83-9.2-5.62-13.88-8.3-.84-.48-.78,1.7-.76,2,.07.91.25,2.61,1.12,3.18,4.59,3,9.24,5.93,13.92,8.81C295,249.47,295,247,294.92,246.7Z" transform="translate(-209.3 -200.29)"/><path class="cls-1" d="M307.41,222.93c-3.1-3-6.09-6-9.55-8.85-1.11-.93-1.88,1.13-1.91,1.24a3.89,3.89,0,0,0,.81,3.62c2.76,3,5.92,5.95,9,8.91a1.38,1.38,0,0,0,2.45-.62A4.15,4.15,0,0,0,307.41,222.93Z" transform="translate(-209.3 -200.29)"/><path class="cls-1" d="M330.22,219c-1.27-5.54-2.47-11.08-4-16.62-.18-.64-1-2.68-2.32-1.84s-1.21,3.12-1,4.35c1.1,5.95,2.52,11.92,3.89,17.88.19.84,1.44,3.2,2.77,1.84S330.62,220.71,330.22,219Z" transform="translate(-209.3 -200.29)"/><path class="cls-1" d="M384,227.16c0-.73-.59-3-2-2.06-3.87,2.74-7.28,5.87-10.8,8.9a6.88,6.88,0,0,0-1.86,5.93c.07.51.19,1.5,1,1.88s1.44-.31,1.75-.58c3.47-3,7-5.91,10.18-9.14A6.59,6.59,0,0,0,384,227.16Z" transform="translate(-209.3 -200.29)"/><path class="cls-1" d="M362.07,204.75c-.19-.8-1.09-3.12-2.07-1.53-3.25,5.29-6,10.84-9,16.3a9.73,9.73,0,0,0-.48,6.5c.19.8,1.35,3.65,2.34,1.74,3-5.73,6.08-11.42,8.76-17.28A9.07,9.07,0,0,0,362.07,204.75Z" transform="translate(-209.3 -200.29)"/></g><g id="Layer_2" data-name="Layer 2"><path class="cls-2" d="M347,291.65c-.1-1.3,2.49-.08,2.06-1.3-.25-.71,1.63-.44,1-.81-13.18-7.37-26.59-14.27-40.05-21S283,255.27,269.36,249q-11.48-5.29-23.05-10.31c-.57-.25-.9.12-1.09.72q-4.77,15.08-9,30.33t-8,30.66q-2.12,8.69-4.08,17.4a13.39,13.39,0,0,0,.48,7.15c.26.72.58,1.84,1.26,2.21.51.29,1-.14,1.09-.72q3.48-15.5,7.47-30.84T242.84,265q2.37-8,4.87-16c13.49,5.86,26.94,11.87,40.22,18.24q20.35,9.75,40.4,20.24c7.48,3.91,7,2.9,14.46,6.87C344.29,295.2,347.09,292.35,347,291.65Z" transform="translate(-209.3 -200.29)"/></g><g id="Layer_3" data-name="Layer 3"><path class="cls-2" d="M422.29,335.38q-4.79-7.62-9.43-15.33l-1-1.71-.59-1c-.09-.17-.19-.33-.29-.49l0-.06-.05-.09q-1.14-1.91-2.26-3.81-2.24-3.82-4.45-7.66-8.93-15.57-17.21-31.5-4.65-8.94-9.11-18c-.28-.57-.94-1.73-1.66-1l-30.1,29.56L316,313.86c-5.65,5.55-6.91,7.82-12.57,13.36-.47.47,2.11.06,2.09.63,0,1.19.7.86,1,2,.18.67,1.72,2.81,2.9,1.65,10-9.83,11.88-11.65,21.93-21.47s20.09-19.61,30.12-29.43l16.18-15.84q7.55,15.28,15.68,30.25,8.74,16.08,18.13,31.76,5.21,8.72,10.61,17.29c.29.46.82.72,1.24.3a4.23,4.23,0,0,0,.57-2.4A12.17,12.17,0,0,0,422.29,335.38Z" transform="translate(-209.3 -200.29)"/></g><g id="Layer_4" data-name="Layer 4"><path class="cls-2" d="M322.78,345.32a12.82,12.82,0,0,0-.39-3,7,7,0,0,0-1.08-2.66c-1.91-2.27-4-4.37-6-6.52s-4-4.25-6-6.38q-6-6.39-12-12.82c-7.93-8.52-15.89-17-23.69-25.68-4.41-4.89-8.85-9.75-13.26-14.64-.31-.34-.79-.79-1.21-.29-.87,1.06-1.65,2.19-2.54,3.23s-1.73,2-2.58,3c-1.73,2.09-3.48,4.18-5.15,6.31q-5,6.38-9.82,12.89-9.69,13.11-18.67,26.75-5.08,7.73-9.93,15.61c-1,1.63-.59,4.23-.14,6a6.77,6.77,0,0,0,1.11,2.71c.27.31.85.87,1.21.29q8.58-13.85,17.88-27.19t19.3-26.17q2.85-3.67,5.69-7.34l2.79-3.57c.82-1.05,1.71-2,2.58-3Q272.2,295.47,283.73,308q11.86,13,23.89,25.76l6.82,7.26c2.32,2.45,4.57,5,7.06,7.27.47.42.93-.33,1-.65A6.64,6.64,0,0,0,322.78,345.32Z" transform="translate(-209.3 -200.29)"/><text class="cls-3" transform="translate(135.53 144.29)"><tspan class="cls-4">n</tspan><tspan class="cls-5" x="26.01" y="0">a</tspan><tspan class="cls-6" x="48.01" y="0">tu</tspan><tspan x="89.65" y="0">re</tspan></text></g></svg>